<mxfile host="Electron" modified="2023-11-20T14:39:22.853Z" agent="Mozilla/5.0 (Windows NT 10.0; Win64; x64) AppleWebKit/537.36 (KHTML, like Gecko) draw.io/22.1.2 Chrome/114.0.5735.289 Electron/25.9.4 Safari/537.36" etag="Vy9bLZzPeAbsVqMyRCBK" version="22.1.2" type="device">
  <diagram id="C5RBs43oDa-KdzZeNtuy" name="Page-1">
    <mxGraphModel dx="864" dy="526" grid="1" gridSize="10" guides="1" tooltips="1" connect="1" arrows="1" fold="1" page="1" pageScale="1" pageWidth="827" pageHeight="1169" math="0" shadow="0">
      <root>
        <mxCell id="WIyWlLk6GJQsqaUBKTNV-0" />
        <mxCell id="WIyWlLk6GJQsqaUBKTNV-1" parent="WIyWlLk6GJQsqaUBKTNV-0" />
        <mxCell id="ieXlKYJfYyWedQ_xrfiE-1" style="edgeStyle=orthogonalEdgeStyle;rounded=0;orthogonalLoop=1;jettySize=auto;html=1;entryX=0.5;entryY=0;entryDx=0;entryDy=0;" edge="1" parent="WIyWlLk6GJQsqaUBKTNV-1" source="WIyWlLk6GJQsqaUBKTNV-3" target="ieXlKYJfYyWedQ_xrfiE-0">
          <mxGeometry relative="1" as="geometry" />
        </mxCell>
        <mxCell id="WIyWlLk6GJQsqaUBKTNV-3" value="Mulai" style="rounded=1;whiteSpace=wrap;html=1;fontSize=12;glass=0;strokeWidth=1;shadow=0;arcSize=50;" parent="WIyWlLk6GJQsqaUBKTNV-1" vertex="1">
          <mxGeometry x="280" y="80" width="120" height="40" as="geometry" />
        </mxCell>
        <mxCell id="ieXlKYJfYyWedQ_xrfiE-3" style="edgeStyle=orthogonalEdgeStyle;rounded=0;orthogonalLoop=1;jettySize=auto;html=1;entryX=0.5;entryY=0;entryDx=0;entryDy=0;" edge="1" parent="WIyWlLk6GJQsqaUBKTNV-1" source="ieXlKYJfYyWedQ_xrfiE-0" target="ieXlKYJfYyWedQ_xrfiE-2">
          <mxGeometry relative="1" as="geometry" />
        </mxCell>
        <mxCell id="ieXlKYJfYyWedQ_xrfiE-0" value="Home" style="rounded=0;whiteSpace=wrap;html=1;" vertex="1" parent="WIyWlLk6GJQsqaUBKTNV-1">
          <mxGeometry x="280" y="160" width="120" height="40" as="geometry" />
        </mxCell>
        <mxCell id="ieXlKYJfYyWedQ_xrfiE-16" style="edgeStyle=orthogonalEdgeStyle;rounded=0;orthogonalLoop=1;jettySize=auto;html=1;entryX=0.5;entryY=0;entryDx=0;entryDy=0;" edge="1" parent="WIyWlLk6GJQsqaUBKTNV-1" source="ieXlKYJfYyWedQ_xrfiE-2" target="ieXlKYJfYyWedQ_xrfiE-15">
          <mxGeometry relative="1" as="geometry" />
        </mxCell>
        <mxCell id="ieXlKYJfYyWedQ_xrfiE-2" value="Transfer" style="rounded=0;whiteSpace=wrap;html=1;" vertex="1" parent="WIyWlLk6GJQsqaUBKTNV-1">
          <mxGeometry x="280" y="240" width="120" height="40" as="geometry" />
        </mxCell>
        <mxCell id="ieXlKYJfYyWedQ_xrfiE-25" style="edgeStyle=orthogonalEdgeStyle;rounded=0;orthogonalLoop=1;jettySize=auto;html=1;exitX=1;exitY=0.5;exitDx=0;exitDy=0;entryX=0;entryY=0.5;entryDx=0;entryDy=0;" edge="1" parent="WIyWlLk6GJQsqaUBKTNV-1" source="ieXlKYJfYyWedQ_xrfiE-6" target="ieXlKYJfYyWedQ_xrfiE-24">
          <mxGeometry relative="1" as="geometry" />
        </mxCell>
        <mxCell id="ieXlKYJfYyWedQ_xrfiE-6" value="Pilih Bank dan isi rekening" style="shape=parallelogram;perimeter=parallelogramPerimeter;whiteSpace=wrap;html=1;fixedSize=1;" vertex="1" parent="WIyWlLk6GJQsqaUBKTNV-1">
          <mxGeometry x="120" y="440" width="120" height="40" as="geometry" />
        </mxCell>
        <mxCell id="ieXlKYJfYyWedQ_xrfiE-27" style="edgeStyle=orthogonalEdgeStyle;rounded=0;orthogonalLoop=1;jettySize=auto;html=1;" edge="1" parent="WIyWlLk6GJQsqaUBKTNV-1" source="ieXlKYJfYyWedQ_xrfiE-7" target="ieXlKYJfYyWedQ_xrfiE-24">
          <mxGeometry relative="1" as="geometry" />
        </mxCell>
        <mxCell id="ieXlKYJfYyWedQ_xrfiE-7" value="Isi Nomor HP" style="shape=parallelogram;perimeter=parallelogramPerimeter;whiteSpace=wrap;html=1;fixedSize=1;" vertex="1" parent="WIyWlLk6GJQsqaUBKTNV-1">
          <mxGeometry x="440" y="440" width="120" height="40" as="geometry" />
        </mxCell>
        <mxCell id="ieXlKYJfYyWedQ_xrfiE-10" value="Transfer sesama Dompet" style="rounded=0;whiteSpace=wrap;html=1;" vertex="1" parent="WIyWlLk6GJQsqaUBKTNV-1">
          <mxGeometry x="400" y="360" width="120" height="40" as="geometry" />
        </mxCell>
        <mxCell id="ieXlKYJfYyWedQ_xrfiE-11" value="Transfer Bank" style="rounded=0;whiteSpace=wrap;html=1;" vertex="1" parent="WIyWlLk6GJQsqaUBKTNV-1">
          <mxGeometry x="160" y="360" width="120" height="40" as="geometry" />
        </mxCell>
        <mxCell id="ieXlKYJfYyWedQ_xrfiE-20" style="edgeStyle=orthogonalEdgeStyle;rounded=0;orthogonalLoop=1;jettySize=auto;html=1;entryX=0.5;entryY=0;entryDx=0;entryDy=0;" edge="1" parent="WIyWlLk6GJQsqaUBKTNV-1" source="ieXlKYJfYyWedQ_xrfiE-15" target="ieXlKYJfYyWedQ_xrfiE-10">
          <mxGeometry relative="1" as="geometry" />
        </mxCell>
        <mxCell id="ieXlKYJfYyWedQ_xrfiE-21" value="Yes" style="edgeLabel;html=1;align=center;verticalAlign=middle;resizable=0;points=[];" vertex="1" connectable="0" parent="ieXlKYJfYyWedQ_xrfiE-20">
          <mxGeometry x="-0.24" relative="1" as="geometry">
            <mxPoint as="offset" />
          </mxGeometry>
        </mxCell>
        <mxCell id="ieXlKYJfYyWedQ_xrfiE-22" style="edgeStyle=orthogonalEdgeStyle;rounded=0;orthogonalLoop=1;jettySize=auto;html=1;exitX=0;exitY=0.5;exitDx=0;exitDy=0;entryX=0.5;entryY=0;entryDx=0;entryDy=0;" edge="1" parent="WIyWlLk6GJQsqaUBKTNV-1" source="ieXlKYJfYyWedQ_xrfiE-15" target="ieXlKYJfYyWedQ_xrfiE-11">
          <mxGeometry relative="1" as="geometry" />
        </mxCell>
        <mxCell id="ieXlKYJfYyWedQ_xrfiE-23" value="No" style="edgeLabel;html=1;align=center;verticalAlign=middle;resizable=0;points=[];" vertex="1" connectable="0" parent="ieXlKYJfYyWedQ_xrfiE-22">
          <mxGeometry x="-0.32" y="-2" relative="1" as="geometry">
            <mxPoint as="offset" />
          </mxGeometry>
        </mxCell>
        <mxCell id="ieXlKYJfYyWedQ_xrfiE-15" value="Pilih Tujuan" style="rhombus;whiteSpace=wrap;html=1;" vertex="1" parent="WIyWlLk6GJQsqaUBKTNV-1">
          <mxGeometry x="300" y="300" width="80" height="80" as="geometry" />
        </mxCell>
        <mxCell id="ieXlKYJfYyWedQ_xrfiE-18" value="" style="endArrow=classic;html=1;rounded=0;exitX=0.5;exitY=1;exitDx=0;exitDy=0;entryX=0.5;entryY=0;entryDx=0;entryDy=0;" edge="1" parent="WIyWlLk6GJQsqaUBKTNV-1" source="ieXlKYJfYyWedQ_xrfiE-10" target="ieXlKYJfYyWedQ_xrfiE-7">
          <mxGeometry width="50" height="50" relative="1" as="geometry">
            <mxPoint x="510" y="500" as="sourcePoint" />
            <mxPoint x="560" y="450" as="targetPoint" />
          </mxGeometry>
        </mxCell>
        <mxCell id="ieXlKYJfYyWedQ_xrfiE-19" value="" style="endArrow=classic;html=1;rounded=0;exitX=0.5;exitY=1;exitDx=0;exitDy=0;entryX=0.5;entryY=0;entryDx=0;entryDy=0;" edge="1" parent="WIyWlLk6GJQsqaUBKTNV-1" source="ieXlKYJfYyWedQ_xrfiE-11" target="ieXlKYJfYyWedQ_xrfiE-6">
          <mxGeometry width="50" height="50" relative="1" as="geometry">
            <mxPoint x="270" y="470" as="sourcePoint" />
            <mxPoint x="170" y="440" as="targetPoint" />
          </mxGeometry>
        </mxCell>
        <mxCell id="ieXlKYJfYyWedQ_xrfiE-31" style="edgeStyle=orthogonalEdgeStyle;rounded=0;orthogonalLoop=1;jettySize=auto;html=1;entryX=0.5;entryY=0;entryDx=0;entryDy=0;" edge="1" parent="WIyWlLk6GJQsqaUBKTNV-1" source="ieXlKYJfYyWedQ_xrfiE-24" target="ieXlKYJfYyWedQ_xrfiE-28">
          <mxGeometry relative="1" as="geometry" />
        </mxCell>
        <mxCell id="ieXlKYJfYyWedQ_xrfiE-24" value="Proses Transfer" style="shape=parallelogram;perimeter=parallelogramPerimeter;whiteSpace=wrap;html=1;fixedSize=1;" vertex="1" parent="WIyWlLk6GJQsqaUBKTNV-1">
          <mxGeometry x="280" y="440" width="120" height="40" as="geometry" />
        </mxCell>
        <mxCell id="ieXlKYJfYyWedQ_xrfiE-30" style="edgeStyle=orthogonalEdgeStyle;rounded=0;orthogonalLoop=1;jettySize=auto;html=1;entryX=0.5;entryY=0;entryDx=0;entryDy=0;" edge="1" parent="WIyWlLk6GJQsqaUBKTNV-1" source="ieXlKYJfYyWedQ_xrfiE-28" target="ieXlKYJfYyWedQ_xrfiE-29">
          <mxGeometry relative="1" as="geometry" />
        </mxCell>
        <mxCell id="ieXlKYJfYyWedQ_xrfiE-28" value="Cek Data Transfer di Payment Gate Way" style="rounded=0;whiteSpace=wrap;html=1;" vertex="1" parent="WIyWlLk6GJQsqaUBKTNV-1">
          <mxGeometry x="280" y="520" width="120" height="40" as="geometry" />
        </mxCell>
        <mxCell id="ieXlKYJfYyWedQ_xrfiE-33" style="edgeStyle=orthogonalEdgeStyle;rounded=0;orthogonalLoop=1;jettySize=auto;html=1;entryX=1;entryY=0.5;entryDx=0;entryDy=0;fillColor=#e51400;strokeColor=#B20000;" edge="1" parent="WIyWlLk6GJQsqaUBKTNV-1" source="ieXlKYJfYyWedQ_xrfiE-29" target="ieXlKYJfYyWedQ_xrfiE-32">
          <mxGeometry relative="1" as="geometry" />
        </mxCell>
        <mxCell id="ieXlKYJfYyWedQ_xrfiE-34" value="No" style="edgeLabel;html=1;align=center;verticalAlign=middle;resizable=0;points=[];" vertex="1" connectable="0" parent="ieXlKYJfYyWedQ_xrfiE-33">
          <mxGeometry x="-0.1333" y="4" relative="1" as="geometry">
            <mxPoint as="offset" />
          </mxGeometry>
        </mxCell>
        <mxCell id="ieXlKYJfYyWedQ_xrfiE-38" style="edgeStyle=orthogonalEdgeStyle;rounded=0;orthogonalLoop=1;jettySize=auto;html=1;exitX=1;exitY=0.5;exitDx=0;exitDy=0;fillColor=#008a00;strokeColor=#005700;" edge="1" parent="WIyWlLk6GJQsqaUBKTNV-1" source="ieXlKYJfYyWedQ_xrfiE-29" target="ieXlKYJfYyWedQ_xrfiE-37">
          <mxGeometry relative="1" as="geometry" />
        </mxCell>
        <mxCell id="ieXlKYJfYyWedQ_xrfiE-39" value="Yes" style="edgeLabel;html=1;align=center;verticalAlign=middle;resizable=0;points=[];" vertex="1" connectable="0" parent="ieXlKYJfYyWedQ_xrfiE-38">
          <mxGeometry x="0.0286" relative="1" as="geometry">
            <mxPoint as="offset" />
          </mxGeometry>
        </mxCell>
        <mxCell id="ieXlKYJfYyWedQ_xrfiE-29" value="Data Sesuai?" style="rhombus;whiteSpace=wrap;html=1;" vertex="1" parent="WIyWlLk6GJQsqaUBKTNV-1">
          <mxGeometry x="300" y="580" width="80" height="80" as="geometry" />
        </mxCell>
        <mxCell id="ieXlKYJfYyWedQ_xrfiE-36" style="edgeStyle=orthogonalEdgeStyle;rounded=0;orthogonalLoop=1;jettySize=auto;html=1;entryX=0;entryY=0.5;entryDx=0;entryDy=0;" edge="1" parent="WIyWlLk6GJQsqaUBKTNV-1" source="ieXlKYJfYyWedQ_xrfiE-32" target="ieXlKYJfYyWedQ_xrfiE-2">
          <mxGeometry relative="1" as="geometry">
            <mxPoint x="100" y="270" as="targetPoint" />
            <Array as="points">
              <mxPoint x="100" y="260" />
            </Array>
          </mxGeometry>
        </mxCell>
        <mxCell id="ieXlKYJfYyWedQ_xrfiE-32" value="Data Transfer bermasalah&amp;nbsp;&amp;nbsp;" style="rounded=0;whiteSpace=wrap;html=1;" vertex="1" parent="WIyWlLk6GJQsqaUBKTNV-1">
          <mxGeometry x="120" y="600" width="120" height="40" as="geometry" />
        </mxCell>
        <mxCell id="ieXlKYJfYyWedQ_xrfiE-42" style="edgeStyle=orthogonalEdgeStyle;rounded=0;orthogonalLoop=1;jettySize=auto;html=1;entryX=0.5;entryY=0;entryDx=0;entryDy=0;" edge="1" parent="WIyWlLk6GJQsqaUBKTNV-1" source="ieXlKYJfYyWedQ_xrfiE-37" target="ieXlKYJfYyWedQ_xrfiE-40">
          <mxGeometry relative="1" as="geometry" />
        </mxCell>
        <mxCell id="ieXlKYJfYyWedQ_xrfiE-37" value="Verifikasi PIN" style="shape=parallelogram;perimeter=parallelogramPerimeter;whiteSpace=wrap;html=1;fixedSize=1;" vertex="1" parent="WIyWlLk6GJQsqaUBKTNV-1">
          <mxGeometry x="440" y="600" width="120" height="40" as="geometry" />
        </mxCell>
        <mxCell id="ieXlKYJfYyWedQ_xrfiE-43" style="edgeStyle=orthogonalEdgeStyle;rounded=0;orthogonalLoop=1;jettySize=auto;html=1;entryX=0.5;entryY=0;entryDx=0;entryDy=0;" edge="1" parent="WIyWlLk6GJQsqaUBKTNV-1" source="ieXlKYJfYyWedQ_xrfiE-40" target="ieXlKYJfYyWedQ_xrfiE-41">
          <mxGeometry relative="1" as="geometry" />
        </mxCell>
        <mxCell id="ieXlKYJfYyWedQ_xrfiE-40" value="Transfer Berhasil" style="rounded=0;whiteSpace=wrap;html=1;" vertex="1" parent="WIyWlLk6GJQsqaUBKTNV-1">
          <mxGeometry x="440" y="680" width="120" height="40" as="geometry" />
        </mxCell>
        <mxCell id="ieXlKYJfYyWedQ_xrfiE-41" value="Selesai" style="rounded=1;whiteSpace=wrap;html=1;fontSize=12;glass=0;strokeWidth=1;shadow=0;arcSize=50;" vertex="1" parent="WIyWlLk6GJQsqaUBKTNV-1">
          <mxGeometry x="440" y="760" width="120" height="40" as="geometry" />
        </mxCell>
      </root>
    </mxGraphModel>
  </diagram>
</mxfile>
